<svg width="173" height="41" viewBox="0 0 173 41" fill="none" xmlns="http://www.w3.org/2000/svg">
<path d="M31.5698 18.3495C30.7845 22.9694 35.3307 32.6773 30.0346 34.5201C24.7385 36.363 22.3904 39.5177 20.8479 32.9447C20.1276 29.8751 19.8058 24.1348 20.8479 21.489C24.0116 21.1983 25.7383 18.7144 27.6445 17.7063C32.0349 15.3843 32.3256 17.7063 31.5698 18.3495Z" fill="#EC9630"/>
<path d="M16.0466 15.1518C15.4652 9.91923 7.38377 19.2797 11.1047 25.7332L11.4535 33.9309L31.8024 35.5006L31.8589 35.2714C34.4869 24.6131 37.1198 13.9343 30.814 18.9309C22.8752 25.2213 16.6116 20.2368 16.0466 15.1518Z" fill="#EFBC3A"/>
<path d="M32.9651 25.7811C31.7182 20.3792 31.3235 28.7651 23.6628 25.6884C15.5814 20.4426 11.2754 16.1038 10.4965 25.7811C10.4965 33.2333 14.4768 37.0922 23.0196 37.0922C37.093 35.0356 33.721 31.5472 32.9651 25.7811Z" fill="#EC9630"/>
<path fill-rule="evenodd" clip-rule="evenodd" d="M14.2751 0.558838C11.961 0.558838 9.8227 1.79338 8.66566 3.79743L0.867778 17.3038C-0.28926 19.3078 -0.289259 21.7769 0.867779 23.7809L8.66566 37.2873C9.8227 39.2913 11.961 40.5259 14.2751 40.5259H29.8708C32.1849 40.5259 34.3232 39.2913 35.4803 37.2873L43.2781 23.7809C44.4352 21.7769 44.4352 19.3078 43.2781 17.3038L35.4803 3.79743C34.3232 1.79338 32.1849 0.558838 29.8708 0.558838H14.2751ZM31.5116 31.6053V9.27974H26.3581V17.7847H17.828V9.27974H12.6744V31.6053H17.828V22.746H26.3581V31.6053H31.5116Z" fill="white"/>
<path d="M74.4401 10.7067V30.2486H69.9423V22.4939H62.4978V30.2486H58V10.7067H62.4978V18.1512H69.9423V10.7067H74.4401Z" fill="white"/>
<path d="M77.2439 23.1143C77.2439 22.0596 77.43 21.0877 77.8023 20.1985C78.1952 19.2886 78.7225 18.5028 79.3842 17.841C80.046 17.1586 80.8111 16.6313 81.6796 16.2591C82.5688 15.8662 83.5201 15.6697 84.5334 15.6697C85.5467 15.6697 86.4876 15.8662 87.3561 16.2591C88.2453 16.6313 89.0208 17.1586 89.6825 17.841C90.3443 18.5028 90.8613 19.2886 91.2335 20.1985C91.6264 21.0877 91.8228 22.0596 91.8228 23.1143C91.8228 24.1689 91.6264 25.1512 91.2335 26.0611C90.8613 26.9503 90.3443 27.7361 89.6825 28.4185C89.0208 29.0803 88.2453 29.6076 87.3561 30.0005C86.4876 30.3727 85.5467 30.5588 84.5334 30.5588C83.5201 30.5588 82.5688 30.3727 81.6796 30.0005C80.8111 29.6076 80.046 29.0803 79.3842 28.4185C78.7225 27.7361 78.1952 26.9503 77.8023 26.0611C77.43 25.1512 77.2439 24.1689 77.2439 23.1143ZM87.6353 23.1143C87.6353 22.0183 87.3354 21.1497 86.7357 20.5087C86.136 19.8676 85.4019 19.5471 84.5334 19.5471C83.6648 19.5471 82.9307 19.8676 82.331 20.5087C81.7313 21.1497 81.4315 22.0183 81.4315 23.1143C81.4315 24.2103 81.7313 25.0788 82.331 25.7199C82.9307 26.3609 83.6648 26.6815 84.5334 26.6815C85.4019 26.6815 86.136 26.3609 86.7357 25.7199C87.3354 25.0788 87.6353 24.2103 87.6353 23.1143Z" fill="white"/>
<path d="M95.5536 19.8573H93.3823V16.2901H94.4679C95.6053 16.2901 96.174 15.7214 96.174 14.584V12.5678H99.7412V15.9799H102.688V19.8573H99.7412V24.5101C99.7412 25.1305 99.917 25.6268 100.269 25.999C100.62 26.3506 101.065 26.5264 101.602 26.5264C101.768 26.5264 101.913 26.5264 102.037 26.5264C102.161 26.5057 102.274 26.485 102.378 26.4643C102.481 26.4436 102.585 26.4126 102.688 26.3713V30.0936C102.523 30.1556 102.336 30.2073 102.13 30.2486C101.716 30.352 101.23 30.4037 100.672 30.4037C99.0381 30.4037 97.7766 29.9591 96.8874 29.0699C95.9982 28.16 95.5536 26.8469 95.5536 25.1305V19.8573Z" fill="white"/>
<path d="M107.974 15.5116C107.974 14.8452 108.11 14.2141 108.383 13.6183C108.666 13.0226 109.07 12.4975 109.595 12.0431C110.12 11.5888 110.756 11.2303 111.503 10.9678C112.25 10.6952 113.088 10.5588 114.017 10.5588C114.825 10.5588 115.577 10.7052 116.274 10.9981C116.981 11.2808 117.597 11.6695 118.122 12.1643C118.657 12.6591 119.076 13.2346 119.379 13.891C119.692 14.5372 119.869 15.2339 119.909 15.9811H118.364C118.283 14.8199 117.849 13.8607 117.062 13.1034C116.274 12.336 115.259 11.9523 114.017 11.9523C113.31 11.9523 112.679 12.0532 112.124 12.2552C111.569 12.447 111.099 12.7096 110.715 13.0428C110.332 13.3659 110.034 13.7445 109.822 14.1787C109.62 14.6129 109.519 15.0572 109.519 15.5116C109.519 16.4001 109.781 17.0918 110.306 17.5866C110.831 18.0713 111.493 18.4701 112.291 18.7831C113.088 19.086 113.947 19.3587 114.865 19.601C115.784 19.8332 116.643 20.1564 117.44 20.5703C118.238 20.9843 118.899 21.5296 119.424 22.2061C119.959 22.8725 120.227 23.7964 120.227 24.9778C120.227 25.7654 120.086 26.4924 119.803 27.1589C119.52 27.8152 119.111 28.3806 118.576 28.8552C118.041 29.3298 117.39 29.7084 116.622 29.9912C115.855 30.2638 114.987 30.4001 114.017 30.4001C113.048 30.4001 112.179 30.2638 111.412 29.9912C110.645 29.7084 109.988 29.3197 109.443 28.8249C108.898 28.3302 108.474 27.7395 108.171 27.0528C107.868 26.3662 107.696 25.6241 107.656 24.8264H109.216C109.377 26.0683 109.867 27.0781 110.685 27.8556C111.503 28.623 112.614 29.0067 114.017 29.0067C115.502 29.0067 116.648 28.6331 117.455 27.8859C118.263 27.1286 118.667 26.1592 118.667 24.9778C118.667 24.0489 118.404 23.3219 117.879 22.7968C117.354 22.2617 116.693 21.8325 115.895 21.5094C115.098 21.1762 114.239 20.8935 113.32 20.6612C112.402 20.4189 111.543 20.1008 110.746 19.707C109.948 19.3132 109.287 18.7983 108.762 18.1621C108.236 17.5159 107.974 16.6324 107.974 15.5116Z" fill="white"/>
<path d="M135.273 30.2486H133.41L126.594 23.1149V30.2486H125.186V10.7103H126.594V23.1149L132.789 16.6021H134.652L128.442 23.1149L135.273 30.2486Z" fill="white"/>
<path d="M140.535 30.2486H139.141V16.6021H140.535V30.2486ZM138.823 12.2552C138.823 11.9422 138.924 11.6847 139.126 11.4827C139.338 11.2707 139.601 11.1647 139.914 11.1647C140.227 11.1647 140.484 11.2707 140.686 11.4827C140.888 11.6847 140.989 11.9422 140.989 12.2552C140.989 12.5682 140.888 12.8307 140.686 13.0428C140.484 13.2447 140.227 13.3457 139.914 13.3457C139.601 13.3457 139.338 13.2447 139.126 13.0428C138.924 12.8307 138.823 12.5682 138.823 12.2552Z" fill="white"/>
<path d="M152.627 16.4506C153.395 16.4506 154.112 16.592 154.778 16.8747C155.455 17.1474 156.03 17.5361 156.505 18.041C156.989 18.5458 157.368 19.1517 157.641 19.8585C157.923 20.5653 158.065 21.3428 158.065 22.191V30.2486H156.671V22.191C156.671 21.575 156.56 21.0045 156.338 20.4795C156.126 19.9443 155.828 19.4798 155.445 19.086C155.061 18.6922 154.617 18.3893 154.112 18.1773C153.607 17.9551 153.062 17.8441 152.476 17.8441C151.86 17.8441 151.284 17.9551 150.749 18.1773C150.224 18.3893 149.765 18.6922 149.371 19.086C148.987 19.4798 148.684 19.9393 148.462 20.4643C148.25 20.9894 148.144 21.5649 148.144 22.191V30.2486H146.736V16.6021H147.675L148.144 18.6165H148.296C148.548 18.2227 148.876 17.8592 149.28 17.526C149.634 17.2534 150.083 17.006 150.628 16.7838C151.173 16.5617 151.84 16.4506 152.627 16.4506Z" fill="white"/>
<path d="M172.641 26.3713C172.641 26.9064 172.525 27.4214 172.293 27.9162C172.071 28.4008 171.758 28.83 171.354 29.2036C170.95 29.5671 170.46 29.8599 169.885 30.082C169.319 30.2941 168.688 30.4001 167.992 30.4001C167.244 30.4001 166.573 30.2941 165.977 30.082C165.391 29.8599 164.887 29.557 164.462 29.1733C164.038 28.7896 163.7 28.3453 163.448 27.8404C163.205 27.3356 163.064 26.7954 163.024 26.2198H164.417C164.579 27.0882 164.937 27.7698 165.492 28.2645C166.058 28.7593 166.891 29.0067 167.992 29.0067C169.001 29.0067 169.794 28.7441 170.369 28.2191C170.955 27.694 171.248 27.0781 171.248 26.3713C171.248 25.7553 171.051 25.2808 170.657 24.9475C170.263 24.6143 169.774 24.3619 169.188 24.1902C168.612 24.0085 167.976 23.852 167.28 23.7207C166.593 23.5895 165.957 23.3976 165.371 23.1452C164.796 22.8927 164.311 22.5393 163.917 22.0849C163.534 21.6306 163.342 20.9894 163.342 20.1614C163.342 19.6666 163.443 19.1921 163.645 18.7377C163.857 18.2833 164.149 17.8895 164.523 17.5563C164.907 17.213 165.376 16.9454 165.932 16.7536C166.497 16.5516 167.133 16.4506 167.84 16.4506C168.506 16.4506 169.112 16.5617 169.658 16.7838C170.203 16.9959 170.682 17.2786 171.096 17.632C171.51 17.9753 171.834 18.3843 172.066 18.8588C172.308 19.3334 172.449 19.8231 172.49 20.328H171.096C170.935 19.6212 170.581 19.0305 170.036 18.5559C169.501 18.0814 168.769 17.8441 167.84 17.8441C166.83 17.8441 166.058 18.0763 165.523 18.5408C164.998 19.0053 164.735 19.5455 164.735 20.1614C164.735 20.7571 164.932 21.2065 165.326 21.5094C165.72 21.8123 166.204 22.0496 166.78 22.2213C167.355 22.3828 167.992 22.5343 168.688 22.6756C169.385 22.8069 170.021 23.0038 170.597 23.2663C171.172 23.5188 171.657 23.8823 172.051 24.3568C172.444 24.8314 172.641 25.5029 172.641 26.3713Z" fill="white"/>
</svg>
